name rise30.8019peak61.5557fall86.2505.mot
datacolumns 19
datarows 33
range 3.82499200000000 3.87832100000000
endheader
time	ground_force1_vx	ground_force1_vy	ground_force1_vz	ground_force1_px	ground_force1_py	ground_force1_pz	ground_force2_vx	ground_force2_vy	ground_force2_vz	ground_force2_px	ground_force2_py	ground_force2_pz	ground_torque1_x	ground_torque1_y	ground_torque1_z	ground_torque2_x	ground_torque2_y	ground_torque2_z	
3.82499200000000	50.80868600000000	753.48297800000000	46.46758600000000	0.23154400000000	0.00000000000000	0.11237400000000	0.00000000000000	0.00000000000000	0.00000000000000	0.00000000000000	0.00000000000000	0.00000000000000	0.00000000000000	10.29209300000000	0.00000000000000	0.00000000000000	0.00000000000000	0.00000000000000	
3.82665300000000	50.08654200000000	754.64663700000006	46.63124200000000	0.23038000000000	0.00000000000000	0.11241000000000	0.00000000000000	0.00000000000000	0.00000000000000	0.00000000000000	0.00000000000000	0.00000000000000	0.00000000000000	10.41507800000000	0.00000000000000	0.00000000000000	0.00000000000000	0.00000000000000	
3.82832500000000	49.35996900000000	755.66004999999996	46.78922200000000	0.22920200000000	0.00000000000000	0.11244700000000	0.00000000000000	0.00000000000000	0.00000000000000	0.00000000000000	0.00000000000000	0.00000000000000	0.00000000000000	10.53565500000000	0.00000000000000	0.00000000000000	0.00000000000000	0.00000000000000	
3.82999200000000	48.62906500000000	756.52416400000004	46.94083500000000	0.22800900000000	0.00000000000000	0.11248400000000	0.00000000000000	0.00000000000000	0.00000000000000	0.00000000000000	0.00000000000000	0.00000000000000	0.00000000000000	10.65346900000000	0.00000000000000	0.00000000000000	0.00000000000000	0.00000000000000	
3.83166000000000	47.89393600000000	757.24019899999996	47.08537500000000	0.22679900000000	0.00000000000000	0.11252200000000	0.00000000000000	0.00000000000000	0.00000000000000	0.00000000000000	0.00000000000000	0.00000000000000	0.00000000000000	10.76816600000000	0.00000000000000	0.00000000000000	0.00000000000000	0.00000000000000	
3.83332000000000	47.15470300000000	757.80964700000004	47.22212500000000	0.22557300000000	0.00000000000000	0.11256000000000	0.00000000000000	0.00000000000000	0.00000000000000	0.00000000000000	0.00000000000000	0.00000000000000	0.00000000000000	10.87939300000000	0.00000000000000	0.00000000000000	0.00000000000000	0.00000000000000	
3.83498900000000	46.41149800000000	758.23426900000004	47.35035800000000	0.22432900000000	0.00000000000000	0.11259900000000	0.00000000000000	0.00000000000000	0.00000000000000	0.00000000000000	0.00000000000000	0.00000000000000	0.00000000000000	10.98679800000000	0.00000000000000	0.00000000000000	0.00000000000000	0.00000000000000	
3.83665600000000	45.66447200000000	758.51609299999996	47.46934600000000	0.22306700000000	0.00000000000000	0.11263800000000	0.00000000000000	0.00000000000000	0.00000000000000	0.00000000000000	0.00000000000000	0.00000000000000	0.00000000000000	11.09003900000000	0.00000000000000	0.00000000000000	0.00000000000000	0.00000000000000	
3.83832700000000	44.91379400000000	758.65740900000003	47.57836500000000	0.22178700000000	0.00000000000000	0.11267800000000	0.00000000000000	0.00000000000000	0.00000000000000	0.00000000000000	0.00000000000000	0.00000000000000	0.00000000000000	11.18877800000000	0.00000000000000	0.00000000000000	0.00000000000000	0.00000000000000	
3.83999100000000	44.15965600000000	758.66076399999997	47.67669800000000	0.22048700000000	0.00000000000000	0.11271800000000	0.00000000000000	0.00000000000000	0.00000000000000	0.00000000000000	0.00000000000000	0.00000000000000	0.00000000000000	11.28269000000000	0.00000000000000	0.00000000000000	0.00000000000000	0.00000000000000	
3.84166400000000	43.40226900000000	758.52895400000000	47.76363900000000	0.21916800000000	0.00000000000000	0.11275700000000	0.00000000000000	0.00000000000000	0.00000000000000	0.00000000000000	0.00000000000000	0.00000000000000	0.00000000000000	11.37146300000000	0.00000000000000	0.00000000000000	0.00000000000000	0.00000000000000	
3.84331900000000	42.64187100000000	758.26501900000005	47.83850100000000	0.21782900000000	0.00000000000000	0.11279700000000	0.00000000000000	0.00000000000000	0.00000000000000	0.00000000000000	0.00000000000000	0.00000000000000	0.00000000000000	11.45479800000000	0.00000000000000	0.00000000000000	0.00000000000000	0.00000000000000	
3.84499000000000	41.87872100000000	757.87223300000005	47.90061900000000	0.21647100000000	0.00000000000000	0.11283700000000	0.00000000000000	0.00000000000000	0.00000000000000	0.00000000000000	0.00000000000000	0.00000000000000	0.00000000000000	11.53241400000000	0.00000000000000	0.00000000000000	0.00000000000000	0.00000000000000	
3.84665500000000	41.11310800000000	757.35409700000002	47.94935300000000	0.21509400000000	0.00000000000000	0.11287700000000	0.00000000000000	0.00000000000000	0.00000000000000	0.00000000000000	0.00000000000000	0.00000000000000	0.00000000000000	11.60405000000000	0.00000000000000	0.00000000000000	0.00000000000000	0.00000000000000	
3.84832000000000	40.34534300000000	756.71432700000003	47.98409800000000	0.21369700000000	0.00000000000000	0.11291600000000	0.00000000000000	0.00000000000000	0.00000000000000	0.00000000000000	0.00000000000000	0.00000000000000	0.00000000000000	11.66946300000000	0.00000000000000	0.00000000000000	0.00000000000000	0.00000000000000	
3.84998700000000	39.57576500000000	755.95684400000005	48.00428000000000	0.21228200000000	0.00000000000000	0.11295500000000	0.00000000000000	0.00000000000000	0.00000000000000	0.00000000000000	0.00000000000000	0.00000000000000	0.00000000000000	11.72843400000000	0.00000000000000	0.00000000000000	0.00000000000000	0.00000000000000	
3.85165200000000	38.80473900000000	755.08576100000005	48.00936700000000	0.21084900000000	0.00000000000000	0.11299300000000	0.00000000000000	0.00000000000000	0.00000000000000	0.00000000000000	0.00000000000000	0.00000000000000	0.00000000000000	11.78076700000000	0.00000000000000	0.00000000000000	0.00000000000000	0.00000000000000	
3.85332400000000	38.03265300000000	754.10537699999998	47.99886900000000	0.20939800000000	0.00000000000000	0.11303100000000	0.00000000000000	0.00000000000000	0.00000000000000	0.00000000000000	0.00000000000000	0.00000000000000	0.00000000000000	11.82629200000000	0.00000000000000	0.00000000000000	0.00000000000000	0.00000000000000	
3.85499300000000	37.25992300000000	753.02015500000005	47.97234500000000	0.20793100000000	0.00000000000000	0.11306800000000	0.00000000000000	0.00000000000000	0.00000000000000	0.00000000000000	0.00000000000000	0.00000000000000	0.00000000000000	11.86486400000000	0.00000000000000	0.00000000000000	0.00000000000000	0.00000000000000	
3.85665400000000	36.48698700000000	751.83471799999995	47.92940100000000	0.20644700000000	0.00000000000000	0.11310400000000	0.00000000000000	0.00000000000000	0.00000000000000	0.00000000000000	0.00000000000000	0.00000000000000	0.00000000000000	11.89636600000000	0.00000000000000	0.00000000000000	0.00000000000000	0.00000000000000	
3.85832000000000	35.71430400000000	750.55382899999995	47.86970100000000	0.20494900000000	0.00000000000000	0.11313900000000	0.00000000000000	0.00000000000000	0.00000000000000	0.00000000000000	0.00000000000000	0.00000000000000	0.00000000000000	11.92070800000000	0.00000000000000	0.00000000000000	0.00000000000000	0.00000000000000	
3.85998400000000	34.94235600000000	749.18238099999996	47.79296000000000	0.20343700000000	0.00000000000000	0.11317300000000	0.00000000000000	0.00000000000000	0.00000000000000	0.00000000000000	0.00000000000000	0.00000000000000	0.00000000000000	11.93782900000000	0.00000000000000	0.00000000000000	0.00000000000000	0.00000000000000	
3.86165100000000	34.17164400000000	747.72537999999997	47.69895500000000	0.20191300000000	0.00000000000000	0.11320600000000	0.00000000000000	0.00000000000000	0.00000000000000	0.00000000000000	0.00000000000000	0.00000000000000	0.00000000000000	11.94769700000000	0.00000000000000	0.00000000000000	0.00000000000000	0.00000000000000	
3.86332200000000	33.40268500000000	746.18793200000005	47.58752300000000	0.20037700000000	0.00000000000000	0.11323800000000	0.00000000000000	0.00000000000000	0.00000000000000	0.00000000000000	0.00000000000000	0.00000000000000	0.00000000000000	11.95030700000000	0.00000000000000	0.00000000000000	0.00000000000000	0.00000000000000	
3.86499200000000	32.63601100000000	744.57522900000004	47.45856200000000	0.19883200000000	0.00000000000000	0.11326700000000	0.00000000000000	0.00000000000000	0.00000000000000	0.00000000000000	0.00000000000000	0.00000000000000	0.00000000000000	11.94568500000000	0.00000000000000	0.00000000000000	0.00000000000000	0.00000000000000	
3.86666000000000	31.87216800000000	742.89253199999996	47.31203700000000	0.19727900000000	0.00000000000000	0.11329600000000	0.00000000000000	0.00000000000000	0.00000000000000	0.00000000000000	0.00000000000000	0.00000000000000	0.00000000000000	11.93388300000000	0.00000000000000	0.00000000000000	0.00000000000000	0.00000000000000	
3.86832100000000	31.11170800000000	741.14515900000004	47.14797400000000	0.19571900000000	0.00000000000000	0.11332200000000	0.00000000000000	0.00000000000000	0.00000000000000	0.00000000000000	0.00000000000000	0.00000000000000	0.00000000000000	11.91498500000000	0.00000000000000	0.00000000000000	0.00000000000000	0.00000000000000	
3.86999200000000	30.35519600000000	739.33846700000004	46.96646800000000	0.19415500000000	0.00000000000000	0.11334700000000	0.00000000000000	0.00000000000000	0.00000000000000	0.00000000000000	0.00000000000000	0.00000000000000	0.00000000000000	11.88909700000000	0.00000000000000	0.00000000000000	0.00000000000000	0.00000000000000	
3.87166000000000	29.60319600000000	737.47784100000001	46.76767900000000	0.19258800000000	0.00000000000000	0.11336900000000	0.00000000000000	0.00000000000000	0.00000000000000	0.00000000000000	0.00000000000000	0.00000000000000	0.00000000000000	11.85635600000000	0.00000000000000	0.00000000000000	0.00000000000000	0.00000000000000	
3.87332400000000	28.85627600000000	735.56867499999998	46.55183100000000	0.19101900000000	0.00000000000000	0.11339000000000	0.00000000000000	0.00000000000000	0.00000000000000	0.00000000000000	0.00000000000000	0.00000000000000	0.00000000000000	11.81692200000000	0.00000000000000	0.00000000000000	0.00000000000000	0.00000000000000	
3.87499200000000	28.11500200000000	733.61636399999998	46.31921700000000	0.18945200000000	0.00000000000000	0.11340900000000	0.00000000000000	0.00000000000000	0.00000000000000	0.00000000000000	0.00000000000000	0.00000000000000	0.00000000000000	11.77098100000000	0.00000000000000	0.00000000000000	0.00000000000000	0.00000000000000	
3.87665800000000	27.37993500000000	731.62628199999995	46.07019100000000	0.18788700000000	0.00000000000000	0.11342500000000	0.00000000000000	0.00000000000000	0.00000000000000	0.00000000000000	0.00000000000000	0.00000000000000	0.00000000000000	11.71874100000000	0.00000000000000	0.00000000000000	0.00000000000000	0.00000000000000	
3.87832100000000	26.65162800000000	729.60377700000004	45.80517300000000	0.18632700000000	0.00000000000000	0.11343900000000	0.00000000000000	0.00000000000000	0.00000000000000	0.00000000000000	0.00000000000000	0.00000000000000	0.00000000000000	11.66043300000000	0.00000000000000	0.00000000000000	0.00000000000000	0.00000000000000	
